<svg xmlns="http://www.w3.org/2000/svg" xmlns:xlink="http://www.w3.org/1999/xlink" width="1080" zoomAndPan="magnify" viewBox="0 0 810 809.999993" height="1080" preserveAspectRatio="xMidYMid meet" version="1.0"><path fill="#fefefe" d="M 490.601562 373.722656 L 505.429688 373.722656 L 531.792969 380.3125 L 558.15625 391.847656 L 574.628906 401.734375 L 591.105469 414.917969 L 604.289062 428.097656 L 615.820312 444.578125 L 627.355469 467.644531 L 633.945312 492.363281 L 635.59375 505.542969 L 635.59375 531.910156 L 630.652344 563.214844 L 620.765625 587.933594 L 610.878906 606.058594 L 599.34375 620.886719 L 586.164062 635.71875 L 568.039062 648.898438 L 548.269531 660.433594 L 521.90625 670.320312 L 497.191406 675.265625 L 459.296875 676.914062 L 431.285156 675.265625 L 340.664062 673.617188 L 342.3125 667.027344 L 365.378906 665.378906 L 375.265625 662.082031 L 380.210938 652.195312 L 381.855469 639.015625 L 383.503906 550.035156 L 404.925781 515.429688 L 411.515625 502.25 L 414.808594 502.25 L 416.457031 639.015625 L 421.398438 653.84375 L 431.285156 662.082031 L 441.171875 665.378906 L 452.707031 667.027344 L 479.066406 667.027344 L 507.078125 662.082031 L 525.203125 655.492188 L 546.621094 643.957031 L 564.746094 627.480469 L 579.574219 606.058594 L 589.460938 582.988281 L 594.402344 559.921875 L 596.050781 548.386719 L 596.050781 507.191406 L 591.105469 480.828125 L 586.164062 464.351562 L 572.984375 437.984375 L 559.800781 419.859375 L 546.621094 406.679688 L 523.554688 391.847656 L 500.488281 383.609375 L 488.953125 380.3125 Z M 490.601562 373.722656 " fill-opacity="1" fill-rule="nonzero"/><path fill="#fefefe" d="M 287.941406 171.046875 L 324.191406 171.046875 L 352.199219 177.636719 L 368.675781 185.878906 L 370.324219 187.523438 L 373.617188 236.957031 L 373.617188 248.492188 L 367.027344 248.492188 L 358.789062 222.128906 L 347.257812 202.355469 L 335.722656 190.820312 L 322.542969 184.230469 L 309.359375 180.933594 L 286.292969 180.933594 L 269.816406 185.878906 L 256.636719 197.410156 L 248.398438 213.890625 L 246.75 220.480469 L 246.75 243.550781 L 251.695312 260.027344 L 258.285156 269.914062 L 269.816406 283.09375 L 287.941406 296.277344 L 312.65625 311.109375 L 352.199219 337.472656 L 365.378906 349.007812 L 363.734375 355.597656 L 347.257812 383.609375 L 342.3125 381.960938 L 332.429688 368.78125 L 315.953125 353.949219 L 292.882812 339.121094 L 263.226562 320.996094 L 243.457031 306.164062 L 230.273438 292.980469 L 220.386719 274.855469 L 215.445312 258.378906 L 215.445312 235.308594 L 222.035156 212.242188 L 235.21875 195.765625 L 253.339844 182.582031 L 273.113281 174.34375 Z M 287.941406 171.046875 " fill-opacity="1" fill-rule="nonzero"/><path fill="#fefefe" d="M 569.6875 121.613281 L 576.277344 124.910156 L 572.984375 131.5 L 544.972656 179.285156 L 528.496094 205.648438 L 508.726562 238.605469 L 480.714844 284.742188 L 459.296875 320.996094 L 441.171875 350.652344 L 416.457031 391.847656 L 388.449219 437.984375 L 363.734375 479.179688 L 335.722656 525.316406 L 291.238281 599.46875 L 263.226562 645.605469 L 223.683594 711.515625 L 217.09375 723.050781 L 208.855469 723.050781 L 207.207031 719.753906 L 223.683594 693.390625 L 254.988281 640.660156 L 281.351562 597.820312 L 302.769531 561.570312 L 322.542969 528.613281 L 343.960938 494.011719 L 365.378906 457.757812 L 385.152344 424.804688 L 406.570312 390.199219 L 427.992188 353.949219 L 447.761719 320.996094 L 469.183594 286.390625 L 490.601562 250.140625 L 510.371094 217.183594 L 531.792969 182.582031 L 558.15625 138.089844 L 568.039062 123.261719 Z M 569.6875 121.613281 " fill-opacity="1" fill-rule="nonzero"/><path fill="#fefefe" d="M 207.207031 390.199219 L 213.796875 391.847656 L 223.683594 421.507812 L 235.21875 441.28125 L 250.046875 459.40625 L 266.523438 469.292969 L 289.589844 475.882812 L 286.292969 482.476562 L 284.644531 484.125 L 269.816406 484.125 L 243.457031 479.179688 L 218.742188 469.292969 L 213.796875 464.351562 L 212.148438 459.40625 L 207.207031 405.03125 Z M 207.207031 390.199219 " fill-opacity="1" fill-rule="nonzero"/></svg>