<svg xmlns="http://www.w3.org/2000/svg" xmlns:xlink="http://www.w3.org/1999/xlink" width="1080" zoomAndPan="magnify" viewBox="0 0 810 809.999993" height="1080" preserveAspectRatio="xMidYMid meet" version="1.0"><path fill="#fefefe" d="M 507.65625 347.691406 L 525.375 347.691406 L 556.871094 355.566406 L 588.367188 369.34375 L 608.054688 381.15625 L 627.738281 396.902344 L 643.488281 412.648438 L 657.269531 432.335938 L 671.046875 459.890625 L 678.921875 489.417969 L 680.890625 505.164062 L 680.890625 536.660156 L 674.984375 574.058594 L 663.175781 603.585938 L 651.363281 625.238281 L 637.582031 642.953125 L 621.835938 660.667969 L 600.179688 676.417969 L 576.558594 690.195312 L 545.058594 702.003906 L 515.53125 707.910156 L 470.253906 709.878906 L 436.789062 707.910156 L 328.515625 705.941406 L 330.484375 698.070312 L 358.046875 696.101562 L 369.855469 692.164062 L 375.761719 680.351562 L 377.730469 664.605469 L 379.699219 558.3125 L 405.289062 516.976562 L 413.164062 501.226562 L 417.101562 501.226562 L 419.070312 664.605469 L 424.976562 682.320312 L 436.789062 692.164062 L 448.597656 696.101562 L 462.378906 698.070312 L 493.875 698.070312 L 527.34375 692.164062 L 548.996094 684.289062 L 574.589844 670.511719 L 596.242188 650.828125 L 613.960938 625.238281 L 625.769531 597.679688 L 631.675781 570.121094 L 633.644531 556.34375 L 633.644531 507.132812 L 627.738281 475.640625 L 621.835938 455.957031 L 606.085938 424.460938 L 590.335938 402.808594 L 574.589844 387.0625 L 547.027344 369.34375 L 519.46875 359.503906 L 505.6875 355.566406 Z M 507.65625 347.691406 " fill-opacity="1" fill-rule="nonzero"/><path fill="#fefefe" d="M 265.523438 105.578125 L 308.832031 105.578125 L 342.296875 113.453125 L 361.980469 123.296875 L 363.949219 125.265625 L 367.886719 184.316406 L 367.886719 198.09375 L 360.015625 198.09375 L 350.171875 166.601562 L 336.390625 142.980469 L 322.609375 129.199219 L 306.863281 121.328125 L 291.113281 117.390625 L 263.554688 117.390625 L 243.867188 123.296875 L 228.121094 137.074219 L 218.277344 156.757812 L 216.308594 164.632812 L 216.308594 192.1875 L 222.214844 211.875 L 230.089844 223.683594 L 243.867188 239.429688 L 265.523438 255.179688 L 295.050781 272.894531 L 342.296875 304.386719 L 358.046875 318.167969 L 356.078125 326.039062 L 336.390625 359.503906 L 330.484375 357.535156 L 318.671875 341.789062 L 298.988281 324.074219 L 271.429688 306.355469 L 235.992188 284.703125 L 212.371094 266.988281 L 196.621094 251.242188 L 184.8125 229.589844 L 178.90625 209.90625 L 178.90625 182.347656 L 186.78125 154.789062 L 202.527344 135.105469 L 224.183594 119.359375 L 247.804688 109.515625 Z M 265.523438 105.578125 " fill-opacity="1" fill-rule="nonzero"/><path fill="#fefefe" d="M 602.148438 46.527344 L 610.023438 50.464844 L 606.085938 58.339844 L 572.621094 115.421875 L 552.933594 146.917969 L 529.3125 186.285156 L 495.84375 241.398438 L 470.253906 284.703125 L 448.601562 320.136719 L 419.070312 369.34375 L 385.605469 424.460938 L 356.078125 473.671875 L 322.609375 528.785156 L 269.460938 617.363281 L 235.992188 672.480469 L 188.746094 751.214844 L 180.875 764.996094 L 171.03125 764.996094 L 169.0625 761.058594 L 188.746094 729.5625 L 226.152344 666.574219 L 257.648438 615.394531 L 283.238281 572.089844 L 306.863281 532.722656 L 332.453125 491.386719 L 358.046875 448.082031 L 381.667969 408.714844 L 407.257812 367.378906 L 432.851562 324.074219 L 456.472656 284.703125 L 482.066406 243.367188 L 507.65625 200.0625 L 531.28125 160.695312 L 556.871094 119.359375 L 588.367188 66.210938 L 600.179688 48.496094 Z M 602.148438 46.527344 " fill-opacity="1" fill-rule="nonzero"/><path fill="#fefefe" d="M 169.0625 367.378906 L 176.9375 369.34375 L 188.746094 404.777344 L 202.527344 428.398438 L 220.246094 450.050781 L 239.929688 461.859375 L 267.492188 469.734375 L 263.554688 477.609375 L 261.585938 479.574219 L 243.867188 479.574219 L 212.371094 473.671875 L 182.84375 461.859375 L 176.9375 455.957031 L 174.96875 450.050781 L 169.0625 385.09375 Z M 169.0625 367.378906 " fill-opacity="1" fill-rule="nonzero"/></svg>