<svg width="16" height="13" viewBox="0 0 16 13" fill="none" xmlns="http://www.w3.org/2000/svg">
<path d="M8.02734 4.2832C8.02734 4.59375 7.79297 4.8457 7.51172 4.8457C7.22461 4.8457 6.99023 4.59375 6.99023 4.2832V2.20312L7.06055 1.28906L6.70898 1.74609L5.98828 2.49023C5.88867 2.5957 5.76562 2.66602 5.625 2.66602C5.36133 2.66602 5.17383 2.47852 5.17383 2.22656C5.17383 2.08008 5.23242 1.96875 5.34961 1.85742L7.1543 0.169922C7.28906 0.046875 7.38867 0 7.51172 0C7.64062 0 7.74023 0.046875 7.875 0.169922L9.67969 1.85742C9.79688 1.96875 9.85547 2.08008 9.85547 2.22656C9.85547 2.47852 9.66797 2.66602 9.4043 2.66602C9.26367 2.66602 9.14062 2.5957 9.04102 2.49023L8.36719 1.79883L7.95703 1.27734L8.02734 2.20312V4.2832ZM10.5352 6.41016C10.3301 6.21094 10.3359 5.86523 10.5645 5.64258L11.5254 4.68164C11.7539 4.45312 12.0879 4.45312 12.2871 4.65234C12.4863 4.85742 12.4922 5.19141 12.2637 5.41992L11.3027 6.375C11.0742 6.60352 10.7402 6.60938 10.5352 6.41016ZM3.71484 6.375L2.75391 5.41992C2.52539 5.19141 2.52539 4.85156 2.73047 4.65234C2.92969 4.45312 3.26367 4.45312 3.49219 4.68164L4.45312 5.64258C4.68164 5.86523 4.68164 6.20508 4.48242 6.41016C4.2832 6.60938 3.94336 6.60352 3.71484 6.375ZM10.6875 9.42188C10.6875 9.80273 10.6113 10.166 10.4707 10.4941H4.54688C4.40625 10.166 4.33008 9.80273 4.33008 9.42188C4.33008 7.68164 5.76562 6.23438 7.51172 6.23438C9.25195 6.23438 10.6875 7.68164 10.6875 9.42188ZM1.30664 9.72656C0.990234 9.72656 0.75 9.49805 0.75 9.21094C0.75 8.92383 0.990234 8.68945 1.30664 8.68945H2.66602C2.98828 8.68945 3.22852 8.92383 3.23438 9.21094C3.23438 9.49805 2.98828 9.73242 2.66602 9.73242L1.30664 9.72656ZM12.3516 9.72656C12.0352 9.72656 11.7891 9.49805 11.7832 9.21094C11.7832 8.92383 12.0293 8.68945 12.3516 8.68945H13.7109C14.0332 8.68945 14.2676 8.92383 14.2676 9.21094C14.2676 9.49805 14.0332 9.72656 13.7109 9.72656H12.3516ZM0.580078 12.3516C0.263672 12.3516 0 12.0938 0 11.7949C0 11.4961 0.263672 11.2383 0.580078 11.2383H14.4375C14.7539 11.2383 15.0176 11.4902 15.0176 11.7949C15.0176 12.0938 14.7539 12.3516 14.4375 12.3516H0.580078Z" fill="#FF8D00"/>
</svg>
